<svg xmlns="http://www.w3.org/2000/svg" width="42" height="32" viewBox="0 0 42 32">
  <g id="discord-brands" transform="translate(-26 -31.999)" fill="none" stroke-linecap="round" stroke-linejoin="round">
    <path d="M61.61,34.7a.107.107,0,0,0-.055-.05A34.648,34.648,0,0,0,53.006,32a.13.13,0,0,0-.137.065A24.1,24.1,0,0,0,51.8,34.252a31.989,31.989,0,0,0-9.6,0,22.11,22.11,0,0,0-1.081-2.186A.135.135,0,0,0,40.984,32a34.549,34.549,0,0,0-8.549,2.651.122.122,0,0,0-.056.048,35.421,35.421,0,0,0-6.2,23.9.144.144,0,0,0,.055.1,34.833,34.833,0,0,0,10.488,5.3.136.136,0,0,0,.147-.048,24.872,24.872,0,0,0,2.146-3.489.133.133,0,0,0-.073-.185,22.941,22.941,0,0,1-3.276-1.561.135.135,0,0,1-.013-.223c.22-.165.44-.337.651-.51a.13.13,0,0,1,.136-.018,24.846,24.846,0,0,0,21.107,0,.129.129,0,0,1,.137.017c.21.173.431.347.652.511a.135.135,0,0,1-.012.223A21.529,21.529,0,0,1,55.04,60.27a.134.134,0,0,0-.071.187,27.932,27.932,0,0,0,2.144,3.487.133.133,0,0,0,.147.05,34.718,34.718,0,0,0,10.5-5.3.134.134,0,0,0,.055-.1A35.187,35.187,0,0,0,61.61,34.7ZM40.035,53.827a4.259,4.259,0,0,1,0-8.463,4.259,4.259,0,0,1,0,8.463Zm13.956,0a4.259,4.259,0,0,1,0-8.463,4.259,4.259,0,0,1,0,8.463Z" stroke="none"/>
    <path d="M 39.99618911743164 34.22983932495117 C 37.85203170776367 34.69207382202148 35.75759887695312 35.37052154541016 33.74889755249023 36.25399398803711 C 31.40700912475586 39.84395217895508 29.82048797607422 43.43938446044922 28.90382385253906 47.23009490966797 C 28.09968566894531 50.55550384521484 27.83406829833984 53.94820785522461 28.09587860107422 57.575439453125 C 30.54275512695312 59.29328536987305 33.19845581054688 60.66172409057617 36.0143928527832 61.65618515014648 C 36.09389877319336 61.53348541259766 36.17222213745117 61.41004180908203 36.24940490722656 61.28579711914062 C 35.70870971679688 61.02356338500977 35.17766571044922 60.74201965332031 34.65930557250977 60.44260787963867 C 34.6548957824707 60.44005584716797 34.65049743652344 60.43749618530273 34.6461067199707 60.43490600585938 C 34.03127670288086 60.073486328125 33.63907623291016 59.43266677856445 33.59699630737305 58.72113800048828 C 33.55474853515625 58.00923538208008 33.86851501464844 57.32660675048828 34.43633651733398 56.89509582519531 C 34.43997573852539 56.89233779907227 34.44362640380859 56.88957595825195 34.44728851318359 56.88683700561523 C 34.65710830688477 56.72964477539062 34.85145568847656 56.57743835449219 35.02557754516602 56.43389511108398 C 35.40577697753906 56.12075805664062 35.88644790649414 55.94821548461914 36.37970733642578 55.94804763793945 C 36.68197631835938 55.94804763793945 36.97510528564453 56.01074600219727 37.25093841552734 56.13440704345703 C 37.2550163269043 56.13622665405273 37.25909805297852 56.13807678222656 37.26316833496094 56.13992691040039 C 40.42140579223633 57.58127593994141 43.70303726196289 58.31210708618164 47.01690673828125 58.31210708618164 C 50.32703018188477 58.31210708618164 53.58494567871094 57.58274078369141 56.69987487792969 56.14441299438477 C 56.9788932800293 56.01511764526367 57.28810119628906 55.94686508178711 57.59554672241211 55.94686508178711 C 58.08501815795898 55.94686508178711 58.5633659362793 56.11736679077148 58.94246673583984 56.42695617675781 C 58.94475555419922 56.42882537841797 58.94704818725586 56.43070602416992 58.94932556152344 56.43258666992188 C 59.14133834838867 56.59081649780273 59.33441543579102 56.74222564697266 59.52318572998047 56.88260650634766 C 59.52457809448242 56.88364791870117 59.52596664428711 56.88467788696289 59.5273551940918 56.88571548461914 C 60.09864807128906 57.3128776550293 60.41770553588867 57.99320602416992 60.38083648681641 58.70559692382812 C 60.34394836425781 59.41817474365234 59.95619583129883 60.06201553344727 59.34358596801758 60.4278678894043 C 59.33790588378906 60.43125534057617 59.33220672607422 60.43462753295898 59.32648849487305 60.43795776367188 C 58.80939483642578 60.73983764648438 58.27898025512695 61.0227165222168 57.73846817016602 61.28506088256836 C 57.8152961730957 61.40884017944336 57.89316177368164 61.531982421875 57.97202301025391 61.6544189453125 C 60.79183578491211 60.66207885742188 63.45030212402344 59.29374694824219 65.89945983886719 57.57379531860352 C 66.18614196777344 53.7020149230957 65.84735870361328 49.94345855712891 64.89027404785156 46.3889274597168 C 63.95349884033203 42.90975570678711 62.39084625244141 39.50275421142578 60.24320220947266 36.25514984130859 C 58.23734664916992 35.37357330322266 56.14625549316406 34.6957893371582 54.00564193725586 34.23286437988281 C 53.87963485717773 34.49871444702148 53.75901794433594 34.76681518554688 53.64436721801758 35.03598785400391 C 53.28677368164062 35.87548065185547 52.40631484985352 36.36651611328125 51.50416564941406 36.22955703735352 C 50.01944732666016 36.00416564941406 48.50516510009766 35.88988494873047 47.00339508056641 35.88988494873047 C 45.50162506103516 35.88988494873047 43.98734664916992 36.00416564941406 42.50262832641602 36.22955703735352 C 41.60154342651367 36.3663215637207 40.72196578979492 35.87663269042969 40.36357498168945 35.03866577148438 C 40.24750137329102 34.76726150512695 40.12484741210938 34.49726486206055 39.99618911743164 34.22983932495117 M 45.80973052978516 49.6096076965332 C 45.80247116088867 53.03905487060547 43.21484756469727 55.8265380859375 40.03523635864258 55.8265380859375 C 36.85112762451172 55.8265380859375 34.26065826416016 53.03115844726562 34.26065826416016 49.59516525268555 C 34.26065826416016 46.15910720825195 36.85112762451172 43.36366653442383 40.03523635864258 43.36366653442383 C 41.52418518066406 43.36366653442383 42.93669509887695 43.96468734741211 44.01254653930664 45.05601501464844 C 45.17598342895508 46.23618698120117 45.8305778503418 47.89511108398438 45.80973052978516 49.6096076965332 M 59.76555252075195 49.6096076965332 C 59.75829315185547 53.03905487060547 57.17062759399414 55.8265380859375 53.99098587036133 55.8265380859375 C 50.80690765380859 55.8265380859375 48.21647644042969 53.03115844726562 48.21647644042969 49.59516525268555 C 48.21647644042969 46.15910720825195 50.80690765380859 43.36366653442383 53.99098587036133 43.36366653442383 C 55.47999572753906 43.36366653442383 56.89252853393555 43.96468734741211 57.96838760375977 45.05602645874023 C 59.13181304931641 46.23617935180664 59.78639602661133 47.89511108398438 59.76555252075195 49.6096076965332 M 52.98223876953125 31.99929046630859 C 52.99010467529297 31.99929046630859 52.99805068969727 32.00000762939453 53.00598526000977 32.00148773193359 C 55.95826721191406 32.51162719726562 58.83191680908203 33.40253829956055 61.55500793457031 34.65192794799805 C 61.57855606079102 34.66157531738281 61.59790802001953 34.67929840087891 61.60957717895508 34.7019157409668 C 66.35258483886719 41.67543792724609 68.69516754150391 49.54181671142578 67.81916809082031 58.5977668762207 C 67.81570434570312 58.63632583618164 67.79578399658203 58.67151641845703 67.76451873779297 58.6943359375 C 64.59000396728516 61.04543685913086 61.03752517700195 62.83749771118164 57.26006698608398 63.99335479736328 C 57.2053108215332 64.01012420654297 57.14596939086914 63.9899787902832 57.11271667480469 63.9433479309082 C 56.31377792358398 62.83508682250977 55.59723663330078 61.66968536376953 54.96884536743164 60.45654678344727 C 54.95139694213867 60.42265701293945 54.9492073059082 60.38292694091797 54.96284866333008 60.34731674194336 C 54.97648620605469 60.31171798706055 55.00464630126953 60.28360748291016 55.04028701782227 60.27004623413086 C 56.17484664916992 59.84348678588867 57.27136611938477 59.32186508178711 58.31813812255859 58.71075820922852 C 58.35666656494141 58.68774795532227 58.38118743896484 58.64702606201172 58.38350677490234 58.60220718383789 C 58.38582611083984 58.55738830566406 58.36565780639648 58.51435852050781 58.32970809936523 58.48747634887695 C 58.10792541503906 58.32254791259766 57.88771820068359 58.14933776855469 57.67742538452148 57.97604751586914 C 57.63868713378906 57.94440460205078 57.58517074584961 57.93793487548828 57.53999710083008 57.95940780639648 C 50.74783706665039 61.09633255004883 43.30631637573242 61.09633255004883 36.43279647827148 57.95940780639648 C 36.38775634765625 57.93922805786133 36.33517456054688 57.94631958007812 36.29708862304688 57.97768783569336 C 36.08686828613281 58.15097808837891 35.8665885925293 58.32254791259766 35.64643859863281 58.48747634887695 C 35.61069869995117 58.5146369934082 35.59082794189453 58.55782699584961 35.59348678588867 58.60264587402344 C 35.59613800048828 58.64745712280273 35.62095642089844 58.68800735473633 35.6596565246582 58.71075820922852 C 36.70882797241211 59.31677627563477 37.80434799194336 59.83871841430664 38.93594741821289 60.27169799804688 C 38.97160720825195 60.28475570678711 38.99996566772461 60.31244659423828 39.01387786865234 60.3477783203125 C 39.02778625488281 60.38310623168945 39.02591705322266 60.42269515991211 39.00873565673828 60.45655822753906 C 38.39069747924805 61.67646789550781 37.673095703125 62.84333801269531 36.86322784423828 63.94527816772461 C 36.82904815673828 63.99060440063477 36.77027893066406 64.00987243652344 36.71587753295898 63.99356842041016 C 32.94518661499023 62.83377838134766 29.39889526367188 61.04188537597656 26.22834777832031 58.6943359375 C 26.19758605957031 58.67035675048828 26.17786407470703 58.63490676879883 26.1737060546875 58.59612655639648 C 25.44198608398438 50.76296615600586 26.93356323242188 42.83158493041992 32.37850570678711 34.70027542114258 C 32.39181518554688 34.67874526977539 32.4114875793457 34.6618766784668 32.43479537963867 34.65199661254883 C 35.15753555297852 33.40152740478516 38.03136825561523 32.51054763793945 40.98395538330078 32.00148773193359 C 41.03878784179688 31.99280548095703 41.09328460693359 32.01863479614258 41.12138748168945 32.06648635864258 C 41.52167510986328 32.77461624145508 41.88258743286133 33.50429534912109 42.20245742797852 34.25220489501953 C 45.38485336303711 33.76911926269531 48.62194061279297 33.76911926269531 51.80433654785156 34.25220489501953 C 52.12210845947266 33.50619506835938 52.47732543945312 32.77669525146484 52.86862564086914 32.06648635864258 C 52.89170455932617 32.02453231811523 52.93558502197266 31.99929046630859 52.98223876953125 31.99929046630859 Z M 40.03523635864258 53.8265380859375 C 42.13760757446289 53.8265380859375 43.80974578857422 51.92746734619141 43.80974578857422 49.59502792358398 C 43.84281539916992 47.27937698364258 42.15417861938477 45.36366653442383 40.03523635864258 45.36366653442383 C 37.93273544311523 45.36366653442383 36.26065826416016 47.26288604736328 36.26065826416016 49.59516525268555 C 36.26065826416016 51.92745590209961 37.96580505371094 53.8265380859375 40.03523635864258 53.8265380859375 Z M 53.99098587036133 53.8265380859375 C 56.11005783081055 53.8265380859375 57.76556777954102 51.92746734619141 57.76556777954102 49.59502792358398 C 57.79863739013672 47.27937698364258 56.11005783081055 45.36366653442383 53.99098587036133 45.36366653442383 C 51.88855743408203 45.36366653442383 50.21647644042969 47.26288604736328 50.21647644042969 49.59516525268555 C 50.21647644042969 51.92745590209961 51.92162704467773 53.8265380859375 53.99098587036133 53.8265380859375 Z" stroke="none" fill="#f7f7f7"/>
  </g>
</svg>
