<?xml version="1.0" encoding="UTF-8" standalone="no"?>
<!DOCTYPE svg PUBLIC "-//W3C//DTD SVG 1.1//EN" "http://www.w3.org/Graphics/SVG/1.1/DTD/svg11.dtd">
<svg width="100%" height="100%" viewBox="0 0 33 32" version="1.1" xmlns="http://www.w3.org/2000/svg" xmlns:xlink="http://www.w3.org/1999/xlink" xml:space="preserve" xmlns:serif="http://www.serif.com/" style="fill-rule:evenodd;clip-rule:evenodd;stroke-linejoin:round;stroke-miterlimit:2;">
    <g transform="matrix(1,0,0,1,-2.86102e-06,0)">
        <g id="facebook-brands_3_" transform="matrix(1,0,0,1,-8,-8)">
            <path d="M27.613,38.784L27.613,29.751L31.221,29.751L31.351,28.902L32.065,24.249L32.242,23.097L27.613,23.097L27.613,21.076C27.613,20.751 27.668,20.3 27.931,19.996C28.18,19.708 28.619,19.562 29.236,19.562L32.266,19.562L32.266,13.759L31.434,13.617C31.355,13.603 29.487,13.288 27.662,13.288C23.295,13.288 20.582,16.071 20.582,20.551L20.582,23.097L16.493,23.097L16.493,29.751L20.582,29.751L20.582,38.784C17.52,38.052 14.741,36.364 12.662,33.955C10.301,31.218 9,27.717 9,24.097C9,20.064 10.57,16.272 13.421,13.421C16.272,10.57 20.064,9 24.097,9C28.131,9 31.923,10.57 34.774,13.421C37.625,16.272 39.195,20.064 39.195,24.097C39.195,27.717 37.894,31.218 35.532,33.955C33.453,36.364 30.674,38.052 27.613,38.784Z" style="fill:rgb(247,247,247);fill-rule:nonzero;"/>
            <path d="M28.613,37.456C30.981,36.654 33.117,35.224 34.775,33.302C36.98,30.746 38.195,27.477 38.195,24.097C38.195,20.331 36.729,16.79 34.067,14.128C31.404,11.466 27.864,10 24.097,10C20.331,10 16.79,11.466 14.128,14.128C11.466,16.79 10,20.331 10,24.097C10,27.477 11.214,30.746 13.419,33.302C15.078,35.224 17.213,36.654 19.582,37.456L19.582,30.751L17.493,30.751C16.388,30.751 15.493,29.855 15.493,28.751L15.493,24.097C15.493,22.993 16.388,22.097 17.493,22.097L19.582,22.097L19.582,20.551C19.582,15.532 22.754,12.288 27.662,12.288C29.571,12.288 31.52,12.617 31.602,12.631C32.563,12.795 33.266,13.628 33.266,14.603L33.266,18.562C33.266,19.667 32.37,20.562 31.266,20.562L29.236,20.562C28.891,20.562 28.723,20.626 28.686,20.652C28.665,20.683 28.613,20.817 28.613,21.076L28.613,22.097L31.077,22.097C31.66,22.097 32.215,22.352 32.595,22.795C32.975,23.237 33.142,23.824 33.054,24.401L32.34,29.054C32.19,30.03 31.35,30.751 30.363,30.751L28.613,30.751L28.613,37.456M26.613,40L26.613,28.751L30.363,28.751L31.077,24.097L26.613,24.097L26.613,21.076C26.613,19.803 27.236,18.562 29.236,18.562L31.266,18.562L31.266,14.603C31.266,14.603 29.424,14.288 27.662,14.288C23.984,14.288 21.582,16.517 21.582,20.551L21.582,24.097L17.493,24.097L17.493,28.751L21.582,28.751L21.582,40C13.887,38.791 8,32.132 8,24.097C8,15.205 15.205,8 24.097,8C32.99,8 40.195,15.205 40.195,24.097C40.195,32.132 34.308,38.791 26.613,40Z" style="fill:rgb(247,247,247);fill-rule:nonzero;"/>
        </g>
    </g>
</svg>
