<svg xmlns="http://www.w3.org/2000/svg" width="32.195" height="32" viewBox="0 0 32.195 32">
  <g id="facebook-brands_3_" data-name="facebook-brands (3)" transform="translate(-8 -8)" fill="none" stroke-linecap="round" stroke-linejoin="round">
    <path d="M40.195,24.1A16.1,16.1,0,1,0,21.582,40V28.751H17.493V24.1h4.089V20.551c0-4.034,2.4-6.262,6.08-6.262a24.773,24.773,0,0,1,3.6.314v3.959h-2.03a2.327,2.327,0,0,0-2.623,2.514V24.1h4.464l-.714,4.653h-3.75V40A16.1,16.1,0,0,0,40.195,24.1Z" stroke="none"/>
    <path d="M 28.61257171630859 37.45580291748047 C 30.98147201538086 36.65370941162109 33.11671829223633 35.22387313842773 34.77528381347656 33.30176162719727 C 36.98034286499023 30.7463207244873 38.19472122192383 27.47747039794922 38.19472122192383 24.09736061096191 C 38.19472122192383 20.33077049255371 36.72863388061523 16.79033088684082 34.06651306152344 14.12821006774902 C 31.40439224243164 11.46609020233154 27.86395263671875 10 24.09736251831055 10 C 20.33077239990234 10 16.79033279418945 11.46609020233154 14.12821292877197 14.12821006774902 C 11.46609210968018 16.79033088684082 10.00000286102295 20.33077049255371 10.00000286102295 24.09736061096191 C 10.00000286102295 27.47747039794922 11.21438217163086 30.7463207244873 13.41944217681885 33.30176162719727 C 15.07800674438477 35.22387313842773 17.21325302124023 36.65370941162109 19.5821533203125 37.45580291748047 L 19.5821533203125 30.75066947937012 L 17.4929027557373 30.75066947937012 C 16.38833236694336 30.75066947937012 15.4929027557373 29.85523986816406 15.4929027557373 28.75066947937012 L 15.4929027557373 24.09736061096191 C 15.4929027557373 22.99279022216797 16.38833236694336 22.09736061096191 17.4929027557373 22.09736061096191 L 19.5821533203125 22.09736061096191 L 19.5821533203125 20.55075073242188 C 19.5821533203125 15.53153991699219 22.75374221801758 12.28835964202881 27.66215324401855 12.28835964202881 C 29.57114219665527 12.28835964202881 31.52007293701172 12.61697959899902 31.60210227966309 12.6309700012207 C 32.56306076049805 12.79485034942627 33.26588439941406 13.6276798248291 33.26588439941406 14.60251045227051 L 33.26588439941406 18.56195068359375 C 33.26588439941406 19.66651916503906 32.37045288085938 20.56195068359375 31.26588249206543 20.56195068359375 L 29.23553276062012 20.56195068359375 C 28.89059257507324 20.56195068359375 28.72300720214844 20.62631416320801 28.68581962585449 20.65182685852051 C 28.66470909118652 20.68344116210938 28.61257171630859 20.81661224365234 28.61257171630859 21.07585906982422 L 28.61257171630859 22.09736061096191 L 31.07699203491211 22.09736061096191 C 31.66039276123047 22.09736061096191 32.21470260620117 22.35209083557129 32.59466171264648 22.79479026794434 C 32.9746208190918 23.23749923706055 33.142333984375 23.82403945922852 33.05385208129883 24.40068054199219 L 32.33986282348633 29.05398941040039 C 32.19011306762695 30.03001976013184 31.3504524230957 30.75066947937012 30.36300277709961 30.75066947937012 L 28.61257171630859 30.75066947937012 L 28.61257171630859 37.45580291748047 M 26.61257171630859 40 L 26.61257171630859 28.75066947937012 L 30.36300277709961 28.75066947937012 L 31.07699203491211 24.09736061096191 L 26.61257171630859 24.09736061096191 L 26.61257171630859 21.07585906982422 C 26.61257171630859 19.80299949645996 27.23634338378906 18.56195068359375 29.23553276062012 18.56195068359375 L 31.26588249206543 18.56195068359375 L 31.26588249206543 14.60251045227051 C 31.26588249206543 14.60251045227051 29.42377281188965 14.28835964202881 27.66215324401855 14.28835964202881 C 23.98377227783203 14.28835964202881 21.5821533203125 16.51667022705078 21.5821533203125 20.55075073242188 L 21.5821533203125 24.09736061096191 L 17.4929027557373 24.09736061096191 L 17.4929027557373 28.75066947937012 L 21.5821533203125 28.75066947937012 L 21.5821533203125 40 C 13.88657283782959 38.79140090942383 8.000002861022949 32.13175964355469 8.000002861022949 24.09736061096191 C 8.000002861022949 15.20487022399902 15.20487213134766 8 24.09736251831055 8 C 32.98985290527344 8 40.19472122192383 15.20487022399902 40.19472122192383 24.09736061096191 C 40.19472122192383 32.13175964355469 34.30815124511719 38.79140090942383 26.61257171630859 40 Z" stroke="none" fill="#f7f7f7"/>
  </g>
</svg>
