<?xml version="1.0" encoding="UTF-8" standalone="no"?>
<!DOCTYPE svg PUBLIC "-//W3C//DTD SVG 1.1//EN" "http://www.w3.org/Graphics/SVG/1.1/DTD/svg11.dtd">
<svg width="100%" height="100%" viewBox="0 0 763 885" version="1.1" xmlns="http://www.w3.org/2000/svg" xmlns:xlink="http://www.w3.org/1999/xlink" xml:space="preserve" xmlns:serif="http://www.serif.com/" style="fill-rule:evenodd;clip-rule:evenodd;stroke-linejoin:round;stroke-miterlimit:2;">
    <g transform="matrix(1,0,0,1,-118.754,-56.1695)">
        <g id="Ebene1">
            <path d="M437.959,67.323C295.626,91.286 174.652,258.521 129.118,474.731C85.947,729.906 181.786,915.149 339.746,940.22C437.066,946.83 518.241,915.71 580.49,839.127L565.405,922.337C709.93,893.415 830.502,722.974 873.443,470.549C904.617,234.192 847.914,68.213 704.387,57.765C577.262,48.511 482.862,79.421 423.025,152.747L437.959,67.323ZM393.499,321.519C430.111,239.034 641.127,230.176 672.438,320.907L609.738,676.615C529.752,756.645 363.275,746.964 331.104,675.086L393.499,321.519Z" style="fill:rgb(247,247,247);"/>
        </g>
    </g>
</svg>
