<?xml version="1.0" encoding="UTF-8" standalone="no"?>
<!DOCTYPE svg PUBLIC "-//W3C//DTD SVG 1.1//EN" "http://www.w3.org/Graphics/SVG/1.1/DTD/svg11.dtd">
<svg width="100%" height="100%" viewBox="0 0 33 32" version="1.1" xmlns="http://www.w3.org/2000/svg" xmlns:xlink="http://www.w3.org/1999/xlink" xml:space="preserve" xmlns:serif="http://www.serif.com/" style="fill-rule:evenodd;clip-rule:evenodd;stroke-linecap:round;stroke-linejoin:round;stroke-miterlimit:1.5;">
    <g transform="matrix(1,0,0,1,-1.62125e-06,6.86646e-06)">
        <g id="instagram-brands_2_" transform="matrix(1,0,0,1,0.075,-31.825)">
            <path d="M15.932,39.621C11.434,39.621 7.732,43.323 7.732,47.821C7.732,52.319 11.434,56.021 15.932,56.021C20.43,56.021 24.132,52.319 24.132,47.821C24.132,47.818 24.132,47.815 24.132,47.812C24.132,43.319 20.434,39.621 15.941,39.621C15.938,39.621 15.935,39.621 15.932,39.621ZM15.932,53.159C13.006,53.159 10.598,50.751 10.598,47.825C10.598,44.899 13.006,42.491 15.932,42.491C18.858,42.491 21.266,44.899 21.266,47.825C21.261,50.749 18.856,53.154 15.932,53.159ZM26.386,39.285C26.386,40.335 25.522,41.199 24.472,41.199C23.422,41.199 22.558,40.335 22.558,39.285C22.558,38.235 23.422,37.371 24.472,37.371C24.474,37.371 24.475,37.371 24.477,37.371C25.524,37.371 26.386,38.233 26.386,39.28C26.386,39.282 26.386,39.283 26.386,39.285ZM31.82,41.227C31.871,38.742 30.942,36.334 29.235,34.527C27.425,32.825 25.019,31.897 22.535,31.942C19.893,31.792 11.974,31.792 9.335,31.942C6.852,31.894 4.446,32.82 2.635,34.52C0.931,36.328 0.002,38.735 0.05,41.22C-0.1,43.862 -0.1,51.781 0.05,54.42C-0.001,56.905 0.928,59.313 2.635,61.12C4.446,62.82 6.851,63.748 9.335,63.705C11.977,63.855 19.896,63.855 22.535,63.705C25.02,63.756 27.428,62.827 29.235,61.12C30.937,59.31 31.865,56.904 31.82,54.42C31.97,51.781 31.97,43.869 31.82,41.227ZM28.407,57.257C27.859,58.648 26.756,59.751 25.365,60.3C23.259,61.135 18.265,60.943 15.932,60.943C13.599,60.943 8.6,61.128 6.5,60.3C5.109,59.751 4.007,58.649 3.458,57.258C2.623,55.152 2.815,50.158 2.815,47.825C2.815,45.492 2.629,40.492 3.458,38.392C4.007,37.001 5.109,35.899 6.5,35.351C8.606,34.516 13.6,34.708 15.933,34.708C18.266,34.708 23.266,34.522 25.366,35.351C26.757,35.9 27.859,37.002 28.408,38.393C29.243,40.499 29.051,45.493 29.051,47.826C29.051,50.159 29.242,55.158 28.407,57.258L28.407,57.257Z" style="fill:none;fill-rule:nonzero;"/>
            <g transform="matrix(1,0,0,1,-0.075,31.825)">
                <path d="M1.681,8.927L2.369,5.505L4.281,3.231L5.848,1.873L8.333,1.548L13.533,1.3L18.904,1.491L23.722,1.663L25.576,1.797L26.99,2.657L28.405,3.9L29.667,5.544L30.183,8.067L30.603,10.992C30.603,10.992 30.641,13.63 30.622,13.974C30.603,14.318 30.259,24.43 30.259,24.43L28.768,27.737L26.13,29.591L22.02,30.624L16.133,30.605L12.252,30.528L6.728,29.859L3.401,27.967L1.853,24.87L1.413,21.123L1.681,8.927Z" style="fill:none;stroke:rgb(247,247,247);stroke-width:1.79px;"/>
            </g>
            <g transform="matrix(1,0,0,1,-0.075,31.825)">
                <path d="M24.945,7.436L24.467,7.398" style="fill:none;stroke:rgb(247,247,247);stroke-width:2.92px;"/>
            </g>
            <g transform="matrix(1,0,0,1,-0.075,31.825)">
                <path d="M11.296,11.011L12.959,9.94L14.794,9.157L17.05,9.29L18.694,9.749L20.663,11.087L22.078,12.559L22.479,14.662L22.651,16.421L22.441,18.237L21.542,19.823L19.784,21.849C19.784,21.849 17.107,22.614 16.897,22.748C16.687,22.882 14.106,22.671 14.106,22.671L11.182,21.123L9.518,18.217L9.366,15.063L10.207,12.483L11.296,11.011Z" style="fill:none;stroke:rgb(247,247,247);stroke-width:1.79px;"/>
            </g>
            <path d="M15.929,32.825C13.096,32.825 10.589,32.867 9.384,32.936C9.381,32.936 9.378,32.936 9.375,32.936C6.614,33.067 4.806,33.751 3.328,35.224C1.861,36.685 1.175,38.494 1.036,41.27C1.036,41.272 1.036,41.275 1.036,41.277C0.887,43.907 0.887,51.736 1.036,54.366C1.036,54.369 1.036,54.372 1.036,54.375C1.167,57.142 1.853,58.949 3.328,60.419C4.803,61.889 6.613,62.575 9.377,62.714C9.379,62.714 9.382,62.714 9.384,62.714C10.589,62.783 13.096,62.825 15.929,62.825C18.761,62.825 21.268,62.783 22.473,62.714C22.476,62.714 22.48,62.714 22.483,62.714C25.249,62.583 27.057,61.897 28.528,60.421C29.996,58.952 30.682,57.143 30.821,54.373C30.821,54.371 30.821,54.368 30.821,54.366C30.97,51.737 30.97,43.913 30.821,41.284C30.821,41.281 30.821,41.278 30.821,41.275C30.69,38.508 30.004,36.7 28.528,35.229C27.059,33.761 25.251,33.075 22.48,32.936C22.478,32.936 22.475,32.936 22.473,32.936C21.269,32.867 18.761,32.825 15.929,32.825M15.932,33.708C16.252,33.708 16.634,33.704 17.039,33.7C17.539,33.696 18.107,33.69 18.698,33.69C22.282,33.69 24.452,33.915 25.734,34.421C27.39,35.08 28.668,36.358 29.336,38.024C30.125,40.013 30.084,44.034 30.057,46.695C30.053,47.108 30.049,47.499 30.049,47.825C30.049,48.151 30.053,48.542 30.057,48.955C30.084,51.619 30.125,55.644 29.336,57.627C28.677,59.282 27.399,60.561 25.733,61.229C24.456,61.735 22.306,61.961 18.761,61.961C18.156,61.961 17.575,61.955 17.062,61.95C16.649,61.946 16.258,61.942 15.932,61.942C15.612,61.942 15.23,61.946 14.826,61.95C14.325,61.954 13.758,61.96 13.166,61.96C9.582,61.96 7.412,61.735 6.13,61.229C4.475,60.57 3.196,59.292 2.528,57.626C1.739,55.637 1.78,51.616 1.807,48.955C1.811,48.542 1.815,48.151 1.815,47.825C1.815,47.505 1.811,47.123 1.808,46.719C1.782,44.048 1.743,40.013 2.529,38.023C3.187,36.368 4.465,35.089 6.131,34.421C7.408,33.915 9.558,33.689 13.103,33.689C13.708,33.689 14.29,33.695 14.802,33.7C15.216,33.704 15.606,33.708 15.932,33.708M24.472,38.371C23.968,38.371 23.558,38.781 23.558,39.285C23.558,39.797 23.96,40.199 24.472,40.199C24.984,40.199 25.386,39.797 25.386,39.285C25.386,38.781 24.976,38.371 24.472,38.371M15.932,40.621C14.003,40.621 12.192,41.369 10.834,42.727C9.476,44.085 8.728,45.896 8.728,47.825C8.728,49.754 9.476,51.565 10.834,52.923C12.192,54.281 14.003,55.029 15.932,55.029C17.861,55.029 19.672,54.281 21.03,52.923C22.389,51.565 23.137,49.754 23.137,47.825C23.137,45.896 22.389,44.085 21.03,42.727C19.672,41.369 17.861,40.621 15.932,40.621M15.932,54.159C12.44,54.159 9.598,51.318 9.598,47.825C9.598,44.332 12.44,41.491 15.932,41.491C19.425,41.491 22.266,44.332 22.266,47.825C22.266,51.318 19.425,54.159 15.932,54.159M15.929,31.825C18.569,31.825 21.209,31.862 22.53,31.937C25.093,32.066 27.364,32.652 29.235,34.522C31.113,36.393 31.698,38.664 31.82,41.227C31.97,43.869 31.97,51.781 31.82,54.423C31.691,56.986 31.106,59.257 29.235,61.128C27.364,63.006 25.093,63.591 22.53,63.713C19.888,63.862 11.969,63.862 9.327,63.713C6.764,63.584 4.5,62.998 2.622,61.128C0.744,59.257 0.159,56.986 0.037,54.423C-0.112,51.781 -0.112,43.862 0.037,41.22C0.166,38.657 0.744,36.386 2.622,34.515C4.5,32.644 6.771,32.059 9.327,31.937C10.648,31.862 13.288,31.825 15.929,31.825ZM15.932,34.708C13.604,34.708 8.606,34.515 6.5,35.351C5.093,35.915 4.015,36.993 3.458,38.392C2.629,40.492 2.815,45.497 2.815,47.825C2.815,50.153 2.622,55.151 3.458,57.258C4.022,58.664 5.1,59.742 6.5,60.299C8.599,61.128 13.604,60.942 15.932,60.942C18.26,60.942 23.258,61.135 25.365,60.299C26.771,59.735 27.85,58.657 28.407,57.258C29.242,55.158 29.049,50.153 29.049,47.825C29.049,45.497 29.242,40.499 28.407,38.392C27.842,36.986 26.764,35.908 25.365,35.351C23.265,34.522 18.26,34.708 15.932,34.708ZM24.472,37.371C25.529,37.371 26.386,38.228 26.386,39.285C26.386,40.349 25.529,41.199 24.472,41.199C23.408,41.199 22.558,40.342 22.558,39.285C22.558,38.228 23.415,37.371 24.472,37.371ZM15.932,39.621C20.473,39.621 24.137,43.284 24.137,47.825C24.137,52.366 20.473,56.029 15.932,56.029C11.391,56.029 7.728,52.366 7.728,47.825C7.728,43.284 11.391,39.621 15.932,39.621ZM15.932,53.159C18.867,53.159 21.266,50.767 21.266,47.825C21.266,44.883 18.874,42.491 15.932,42.491C12.99,42.491 10.598,44.883 10.598,47.825C10.598,50.767 12.997,53.159 15.932,53.159Z" style="fill:rgb(247,247,247);fill-rule:nonzero;"/>
        </g>
    </g>
</svg>
