<svg xmlns="http://www.w3.org/2000/svg" width="32.001" height="32" viewBox="0 0 32.001 32">
  <g id="linkedin-in-brands" transform="translate(0 -0.01)" fill="none" stroke-linecap="round" stroke-linejoin="round">
    <path d="M7.163,32.01H.529V10.645H7.163ZM3.842,7.731A3.86,3.86,0,1,1,7.684,3.852,3.875,3.875,0,0,1,3.842,7.731ZM31.994,32.01h-6.62V21.61c0-2.479-.05-5.657-3.449-5.657-3.449,0-3.978,2.693-3.978,5.479V32.01H11.319V10.645h6.363V13.56h.093a6.971,6.971,0,0,1,6.277-3.45C30.766,10.11,32,14.531,32,20.274V32.01Z" stroke="none"/>
    <path d="M 30.50071907043457 30.51000022888184 L 30.50071907043457 20.27402114868164 C 30.50071907043457 17.21100997924805 30.11119842529297 15.16569995880127 29.27487945556641 13.83732032775879 C 28.67276763916016 12.88096046447754 27.47626876831055 11.60951042175293 24.05196952819824 11.60951042175293 C 21.43000793457031 11.60951042175293 19.74638938903809 13.03709983825684 19.101318359375 14.25961017608643 C 18.84167861938477 14.75166034698486 18.33102798461914 15.05959033966064 17.77467918395996 15.05959033966064 L 17.68182945251465 15.05959033966064 C 16.8533992767334 15.05959033966064 16.18182945251465 14.38802051544189 16.18182945251465 13.55959033966064 L 16.18182945251465 12.14523983001709 L 12.81882858276367 12.14523983001709 L 12.81882858276367 30.51000022888184 L 16.44611930847168 30.51000022888184 L 16.44611930847168 21.43119049072266 C 16.44611930847168 20.07674980163574 16.54636764526367 18.34028053283691 17.32807922363281 16.92280960083008 C 17.9495677947998 15.79586029052734 19.25141906738281 14.45250034332275 21.92405891418457 14.45250034332275 C 24.06108856201172 14.45250034332275 25.58052825927734 15.43692016601562 26.31811904907227 17.29932975769043 C 26.87342834472656 18.70148086547852 26.87342834472656 20.38241004943848 26.87342834472656 21.60976982116699 L 26.87342834472656 30.51000022888184 L 30.50071907043457 30.51000022888184 M 5.663018703460693 30.51000022888184 L 5.663018703460693 12.14523983001709 L 2.028588533401489 12.14523983001709 L 2.028588533401489 30.51000022888184 L 5.663018703460693 30.51000022888184 M 3.842228651046753 6.230880260467529 C 5.13373851776123 6.230880260467529 6.18445873260498 5.163820266723633 6.18445873260498 3.852230310440063 C 6.18445873260498 2.560720205307007 5.13373851776123 1.510000228881836 3.842228651046753 1.510000228881836 C 2.550718545913696 1.510000228881836 1.499998569488525 2.560720205307007 1.499998569488525 3.852230310440063 C 1.499998569488525 5.163820266723633 2.550718545913696 6.230880260467529 3.842228651046753 6.230880260467529 M 32.00071716308594 32.01000213623047 L 25.37342834472656 32.01000213623047 L 25.37342834472656 21.60976982116699 C 25.37342834472656 19.13113975524902 25.32342910766602 15.95250034332275 21.92405891418457 15.95250034332275 C 18.47469902038574 15.95250034332275 17.94611930847168 18.64542007446289 17.94611930847168 21.43119049072266 L 17.94611930847168 32.01000213623047 L 11.31882858276367 32.01000213623047 L 11.31882858276367 10.64523983001709 L 17.68182945251465 10.64523983001709 L 17.68182945251465 13.55959033966064 L 17.77467918395996 13.55959033966064 C 18.66041946411133 11.88098049163818 20.82403945922852 10.10951042175293 24.05196952819824 10.10951042175293 C 30.76640892028809 10.10951042175293 32.00071716308594 14.53104019165039 32.00071716308594 20.27402114868164 L 32.00071716308594 32.01000213623047 Z M 7.163018703460693 32.01000213623047 L 0.528588593006134 32.01000213623047 L 0.528588593006134 10.64523983001709 L 7.163018703460693 10.64523983001709 L 7.163018703460693 32.01000213623047 Z M 3.842228651046753 7.730880260467529 C 1.720748543739319 7.730880260467529 -1.418457031832077e-06 5.973700046539307 -1.418457031832077e-06 3.852230310440063 C -1.418457031832077e-06 1.730220198631287 1.720228552818298 0.01000022888183594 3.842228651046753 0.01000022888183594 C 5.96423864364624 0.01000022888183594 7.68445873260498 1.730220198631287 7.68445873260498 3.852230310440063 C 7.68445873260498 5.973700046539307 5.962988376617432 7.730880260467529 3.842228651046753 7.730880260467529 Z" stroke="none" fill="#f7f7f7"/>
  </g>
</svg>
