<?xml version="1.0" encoding="UTF-8" standalone="no"?>
<!DOCTYPE svg PUBLIC "-//W3C//DTD SVG 1.1//EN" "http://www.w3.org/Graphics/SVG/1.1/DTD/svg11.dtd">
<svg width="100%" height="100%" viewBox="0 0 43 33" version="1.1" xmlns="http://www.w3.org/2000/svg" xmlns:xlink="http://www.w3.org/1999/xlink" xml:space="preserve" xmlns:serif="http://www.serif.com/" style="fill-rule:evenodd;clip-rule:evenodd;stroke-linecap:round;stroke-linejoin:round;stroke-miterlimit:1.5;">
    <g transform="matrix(1,0,0,1,0.00572286,0.00108597)">
        <g id="discord-brands" transform="matrix(1,0,0,1,-26,-31.999)">
            <path d="M61.61,34.7C61.598,34.677 61.579,34.66 61.555,34.65C58.832,33.401 55.958,32.51 53.006,32C52.951,31.99 52.896,32.016 52.869,32.065C52.476,32.776 52.119,33.505 51.8,34.252C48.618,33.769 45.382,33.769 42.2,34.252C41.88,33.504 41.519,32.774 41.119,32.066C41.092,32.019 41.038,31.993 40.984,32C38.031,32.509 35.158,33.4 32.435,34.651C32.412,34.661 32.392,34.678 32.379,34.699C27.514,41.662 25.312,50.149 26.179,58.599C26.183,58.638 26.203,58.675 26.234,58.699C29.405,61.047 32.951,62.839 36.722,63.999C36.776,64.015 36.835,63.996 36.869,63.951C37.679,62.849 38.397,61.682 39.015,60.462C39.024,60.443 39.029,60.423 39.029,60.402C39.029,60.346 38.994,60.296 38.942,60.277C37.81,59.844 36.715,59.322 35.666,58.716C35.625,58.692 35.6,58.648 35.6,58.6C35.6,58.558 35.62,58.519 35.653,58.493C35.873,58.328 36.093,58.156 36.304,57.983C36.342,57.952 36.395,57.945 36.44,57.965C43.122,61.1 50.865,61.1 57.547,57.965C57.592,57.944 57.646,57.95 57.684,57.982C57.894,58.155 58.115,58.329 58.336,58.493C58.37,58.519 58.389,58.558 58.389,58.6C58.389,58.648 58.364,58.692 58.324,58.716C57.275,59.326 56.176,59.845 55.04,60.27C54.988,60.29 54.954,60.34 54.954,60.395C54.954,60.417 54.959,60.438 54.969,60.457C55.597,61.67 56.314,62.836 57.113,63.944C57.146,63.99 57.205,64.011 57.26,63.994C61.036,62.837 64.587,61.045 67.76,58.694C67.792,58.671 67.812,58.634 67.815,58.594C68.7,50.144 66.495,41.652 61.61,34.7ZM40.035,53.827C37.894,53.583 36.259,51.75 36.259,49.596C36.259,47.441 37.894,45.608 40.035,45.364C42.176,45.608 43.811,47.441 43.811,49.596C43.811,51.75 42.176,53.583 40.035,53.827ZM53.991,53.827C51.85,53.583 50.215,51.75 50.215,49.596C50.215,47.441 51.85,45.608 53.991,45.364C56.132,45.608 57.767,47.441 57.767,49.596C57.767,51.75 56.132,53.583 53.991,53.827Z" style="fill:none;fill-rule:nonzero;"/>
            <path d="M39.996,34.23C37.852,34.692 35.758,35.371 33.749,36.254C31.407,39.844 29.82,43.439 28.904,47.23C28.1,50.556 27.834,53.948 28.096,57.575C30.543,59.293 33.198,60.662 36.014,61.656C36.094,61.533 36.172,61.41 36.249,61.286C35.709,61.024 35.178,60.742 34.659,60.443C34.655,60.44 34.65,60.437 34.646,60.435C34.031,60.073 33.639,59.433 33.597,58.721C33.555,58.009 33.869,57.327 34.436,56.895C34.44,56.892 34.444,56.89 34.447,56.887C34.657,56.73 34.851,56.577 35.026,56.434C35.406,56.121 35.886,55.948 36.38,55.948C36.682,55.948 36.975,56.011 37.251,56.134C37.255,56.136 37.259,56.138 37.263,56.14C40.421,57.581 43.703,58.312 47.017,58.312C50.327,58.312 53.585,57.583 56.7,56.144C56.979,56.015 57.288,55.947 57.596,55.947C58.085,55.947 58.563,56.117 58.942,56.427C58.945,56.429 58.947,56.431 58.949,56.433C59.141,56.591 59.334,56.742 59.523,56.883C59.525,56.884 59.526,56.885 59.527,56.886C60.099,57.313 60.418,57.993 60.381,58.706C60.344,59.418 59.956,60.062 59.344,60.428C59.338,60.431 59.332,60.435 59.326,60.438C58.809,60.74 58.279,61.023 57.738,61.285C57.815,61.409 57.893,61.532 57.972,61.654C60.792,60.662 63.45,59.294 65.899,57.574C66.186,53.702 65.847,49.943 64.89,46.389C63.953,42.91 62.391,39.503 60.243,36.255C58.237,35.374 56.146,34.696 54.006,34.233C53.88,34.499 53.759,34.767 53.644,35.036C53.287,35.875 52.406,36.367 51.504,36.23C50.019,36.004 48.505,35.89 47.003,35.89C45.502,35.89 43.987,36.004 42.503,36.23C41.602,36.366 40.722,35.877 40.364,35.039C40.248,34.767 40.125,34.497 39.996,34.23M45.81,49.61C45.802,53.039 43.215,55.827 40.035,55.827C36.851,55.827 34.261,53.031 34.261,49.595C34.261,46.159 36.851,43.364 40.035,43.364C41.524,43.364 42.937,43.965 44.013,45.056C45.176,46.236 45.831,47.895 45.81,49.61M59.766,49.61C59.758,53.039 57.171,55.827 53.991,55.827C50.807,55.827 48.216,53.031 48.216,49.595C48.216,46.159 50.807,43.364 53.991,43.364C55.48,43.364 56.893,43.965 57.968,45.056C59.132,46.236 59.786,47.895 59.766,49.61M52.982,31.999C52.99,31.999 52.998,32 53.006,32.001C55.958,32.512 58.832,33.403 61.555,34.652C61.579,34.662 61.598,34.679 61.61,34.702C66.353,41.675 68.695,49.542 67.819,58.598C67.816,58.636 67.796,58.672 67.765,58.694C64.59,61.045 61.038,62.837 57.26,63.993C57.205,64.01 57.146,63.99 57.113,63.943C56.314,62.835 55.597,61.67 54.969,60.457C54.951,60.423 54.949,60.383 54.963,60.347C54.976,60.312 55.005,60.284 55.04,60.27C56.175,59.843 57.271,59.322 58.318,58.711C58.357,58.688 58.381,58.647 58.384,58.602C58.386,58.557 58.366,58.514 58.33,58.487C58.108,58.323 57.888,58.149 57.677,57.976C57.639,57.944 57.585,57.938 57.54,57.959C50.748,61.096 43.306,61.096 36.433,57.959C36.388,57.939 36.335,57.946 36.297,57.978C36.087,58.151 35.867,58.323 35.646,58.487C35.611,58.515 35.591,58.558 35.593,58.603C35.596,58.647 35.621,58.688 35.66,58.711C36.709,59.317 37.804,59.839 38.936,60.272C38.972,60.285 39,60.312 39.014,60.348C39.028,60.383 39.026,60.423 39.009,60.457C38.391,61.676 37.673,62.843 36.863,63.945C36.829,63.991 36.77,64.01 36.716,63.994C32.945,62.834 29.399,61.042 26.228,58.694C26.198,58.67 26.178,58.635 26.174,58.596C25.442,50.763 26.934,42.832 32.379,34.7C32.392,34.679 32.411,34.662 32.435,34.652C35.158,33.402 38.031,32.511 40.984,32.001C41.039,31.993 41.093,32.019 41.121,32.066C41.522,32.775 41.883,33.504 42.202,34.252C45.385,33.769 48.622,33.769 51.804,34.252C52.122,33.506 52.477,32.777 52.869,32.066C52.892,32.025 52.936,31.999 52.982,31.999ZM40.035,53.827C42.138,53.827 43.81,51.927 43.81,49.595C43.843,47.279 42.154,45.364 40.035,45.364C37.933,45.364 36.261,47.263 36.261,49.595C36.261,51.927 37.966,53.827 40.035,53.827ZM53.991,53.827C56.11,53.827 57.766,51.927 57.766,49.595C57.799,47.279 56.11,45.364 53.991,45.364C51.889,45.364 50.216,47.263 50.216,49.595C50.216,51.927 51.922,53.827 53.991,53.827Z" style="fill:rgb(247,247,247);fill-rule:nonzero;"/>
        </g>
        <path d="M8.343,28.489L5.933,26.958L3.79,25.447L2.795,23.285C2.795,23.285 3.292,20.683 3.292,20.415C3.292,20.147 3.943,16.493 3.943,16.493C3.943,16.493 4.326,14.158 4.498,13.814C4.67,13.47 5.493,11.92 5.493,11.92C5.493,11.92 5.914,9.815 6.086,9.605C6.258,9.394 7.789,6.811 7.789,6.811L8.975,5.013L11.252,3.75L13.069,3.616L15.04,4.592L17.68,4.955L21.067,4.649C21.067,4.649 24.128,4.688 24.434,4.726C24.741,4.764 28.376,4.305 28.644,4.267C28.912,4.228 29.007,3.406 29.007,3.406L33.943,4.458L34.632,6.62L36.106,10.026C36.106,10.026 37.426,15.498 37.56,15.919C37.694,16.34 38.861,20.53 38.899,20.874C38.937,21.219 38.344,24.261 38.344,24.261L37.732,25.619L33.618,28.393L32.776,29.082C34.016,28.179 34.668,27.115 34.785,25.906L35.512,23.687L33.274,23.208L30.213,23.361L28.873,24.222L25.697,25.083L21.392,25.064L19.46,24.72L15.748,24.414L13.72,24.28L10.965,23.629L9.817,23.285L7.961,23.801L6.909,26.117L8.152,27.839L9.434,29.12L8.343,28.489Z" style="fill:none;stroke:rgb(247,247,247);stroke-width:3.49px;"/>
        <path d="M5.837,25.409L4.938,24.261L4.459,21.85L4.67,19.229C4.67,19.229 4.938,17.488 5.148,17.086C5.359,16.684 6.468,14.886 6.775,14.407C7.081,13.929 7.559,11.69 7.559,11.69C7.559,11.69 7.903,9.815 7.942,9.547C7.98,9.28 8.63,8.342 8.63,8.342L10.563,6.39L11.826,5.491L13.586,6.084L17.623,6.352L22.158,6.62L26.061,6.352L29.639,6.084L32.049,6.773L33.695,10.657C33.695,10.657 34.862,12.991 34.824,13.24C34.785,13.489 35.359,16.244 35.359,16.244L36.144,19.726L36.393,22.883L37.407,25.083L34.135,21.62C35.076,18.314 34.776,15.098 32.757,11.996L28.931,9.28L24.434,9.987C24.434,9.987 21.029,11.958 21.048,12.379C21.067,12.8 21.048,17.679 21.048,17.679L21.373,20.204L23.267,23.725L18.541,23.668L20.416,19.554C20.846,18.177 20.51,16.052 19.919,13.757L18.943,10.274L15.327,9.452L12.132,9.624L9.817,11.518L8.267,13.871L7.31,17.201C7.31,17.201 7.425,19.745 7.425,20.013C7.425,20.281 7.176,22.271 7.176,22.271L5.837,25.409Z" style="fill:none;stroke:rgb(247,247,247);stroke-width:5.19px;"/>
    </g>
</svg>
