<?xml version="1.0" encoding="UTF-8" standalone="no"?>
<!DOCTYPE svg PUBLIC "-//W3C//DTD SVG 1.1//EN" "http://www.w3.org/Graphics/SVG/1.1/DTD/svg11.dtd">
<svg width="100%" height="100%" viewBox="0 0 33 33" version="1.1" xmlns="http://www.w3.org/2000/svg" xmlns:xlink="http://www.w3.org/1999/xlink" xml:space="preserve" xmlns:serif="http://www.serif.com/" style="fill-rule:evenodd;clip-rule:evenodd;stroke-linecap:round;stroke-linejoin:round;stroke-miterlimit:1.5;">
    <g transform="matrix(1,0,0,1,0.035953,-2.28882e-07)">
        <g id="linkedin-in-brands" transform="matrix(1,0,0,1,0,-0.01)">
            <path d="M7.163,32.01L0.529,32.01L0.529,10.645L7.163,10.645L7.163,32.01ZM3.842,7.731C3.836,7.731 3.83,7.731 3.824,7.731C1.707,7.731 -0.036,5.989 -0.036,3.871C-0.036,1.754 1.707,0.011 3.824,0.011C5.934,0.011 7.674,1.742 7.684,3.852C7.686,5.967 5.957,7.713 3.842,7.731ZM32,32.01L25.374,32.01L25.374,21.61C25.374,19.131 25.324,15.953 21.925,15.953C18.476,15.953 17.947,18.646 17.947,21.432L17.947,32.01L11.319,32.01L11.319,10.645L17.682,10.645L17.682,13.56L17.775,13.56C19.07,11.344 21.487,10.015 24.052,10.11C30.766,10.11 32,14.531 32,20.274L32,32.01Z" style="fill:none;fill-rule:nonzero;"/>
            <path d="M30.501,30.51L30.501,20.274C30.501,17.211 30.111,15.166 29.275,13.837C28.673,12.881 27.476,11.61 24.052,11.61C21.43,11.61 19.746,13.037 19.101,14.26C18.842,14.752 18.331,15.06 17.775,15.06L17.682,15.06C16.853,15.06 16.182,14.388 16.182,13.56L16.182,12.145L12.819,12.145L12.819,30.51L16.446,30.51L16.446,21.431C16.446,20.077 16.546,18.34 17.328,16.923C17.95,15.796 19.251,14.453 21.924,14.453C24.061,14.453 25.581,15.437 26.318,17.299C26.873,18.701 26.873,20.382 26.873,21.61L26.873,30.51L30.501,30.51M5.663,30.51L5.663,12.145L2.029,12.145L2.029,30.51L5.663,30.51M3.842,6.231C5.134,6.231 6.184,5.164 6.184,3.852C6.184,2.561 5.134,1.51 3.842,1.51C2.551,1.51 1.5,2.561 1.5,3.852C1.5,5.164 2.551,6.231 3.842,6.231M32.001,32.01L25.373,32.01L25.373,21.61C25.373,19.131 25.323,15.953 21.924,15.953C18.475,15.953 17.946,18.645 17.946,21.431L17.946,32.01L11.319,32.01L11.319,10.645L17.682,10.645L17.682,13.56L17.775,13.56C18.66,11.881 20.824,10.11 24.052,10.11C30.766,10.11 32.001,14.531 32.001,20.274L32.001,32.01ZM7.163,32.01L0.529,32.01L0.529,10.645L7.163,10.645L7.163,32.01ZM3.842,7.731C1.721,7.731 -0,5.974 -0,3.852C-0,1.73 1.72,0.01 3.842,0.01C5.964,0.01 7.684,1.73 7.684,3.852C7.684,5.974 5.963,7.731 3.842,7.731Z" style="fill:rgb(247,247,247);fill-rule:nonzero;"/>
            <g transform="matrix(1,0,0,1,0,0.01)">
                <path d="M3.245,3.881L4.067,3.861" style="fill:none;stroke:rgb(247,247,247);stroke-width:6.05px;"/>
            </g>
            <g transform="matrix(1,0,0,1,0,0.01)">
                <path d="M3.895,13.84L3.723,21.792L3.762,28.425" style="fill:none;stroke:rgb(247,247,247);stroke-width:6.05px;"/>
            </g>
            <g transform="matrix(1,0,0,1,0,0.01)">
                <path d="M14.526,19.727L14.562,13.897L14.466,29.419" style="fill:none;stroke:rgb(247,247,247);stroke-width:6.05px;"/>
            </g>
            <g transform="matrix(1,0,0,1,0,0.01)">
                <path d="M21.348,13.419L23.68,13.247L26.815,14.088C27.969,15.378 28.299,16.488 28.383,18.695L28.746,24.43L28.536,29.591" style="fill:none;stroke:rgb(247,247,247);stroke-width:4.34px;"/>
            </g>
            <g transform="matrix(1,0,0,1,0,0.01)">
                <path d="M17.353,16.096L19.284,14.452" style="fill:none;stroke:rgb(247,247,247);stroke-width:1.5px;"/>
            </g>
        </g>
    </g>
</svg>
