<svg xmlns="http://www.w3.org/2000/svg" xmlns:xlink="http://www.w3.org/1999/xlink" width="220" height="237.273" viewBox="0 0 220 237.273"><defs><style>.a,.b,.c,.d,.e{opacity:0.5;}.b{fill:#2dff77;}.c,.d{mix-blend-mode:darken;}.c,.d,.e{isolation:isolate;}.c{fill:url(#c);}.d{fill:url(#d);}.e{mix-blend-mode:lighten;fill:url(#e);}.f{filter:url(#a);}</style><filter id="a" x="0" y="0" width="220" height="237.273" filterUnits="userSpaceOnUse"><feOffset dx="2" dy="2" input="SourceAlpha"/><feGaussianBlur stdDeviation="5" result="b"/><feFlood flood-opacity="0.302"/><feComposite operator="in" in2="b"/><feComposite in="SourceGraphic"/></filter><linearGradient id="c" x2="1" y2="1" gradientUnits="objectBoundingBox"><stop offset="0" stop-color="#2e2e2e" stop-opacity="0.8"/><stop offset="1" stop-color="#52cc7c" stop-opacity="0.502"/></linearGradient><linearGradient id="d" x1="1" x2="0" xlink:href="#c"/><linearGradient id="e" x1="0.5" x2="0.5" y2="1.372" gradientUnits="objectBoundingBox"><stop offset="0" stop-color="#f7f7f7" stop-opacity="0.2"/><stop offset="1" stop-color="#f7f7f7" stop-opacity="0"/></linearGradient></defs><g class="a" transform="translate(13 13)"><g class="f" transform="matrix(1, 0, 0, 1, -13, -13)"><path class="b" d="M32,0H182a8,8,0,0,1,8,8V175.273a32,32,0,0,1-32,32H8a8,8,0,0,1-8-8V32A32,32,0,0,1,32,0Z" transform="translate(13 13)"/></g><path class="c" d="M32,0H182a8,8,0,0,1,8,8V175.273a32,32,0,0,1-32,32H8a8,8,0,0,1-8-8V32A32,32,0,0,1,32,0Z"/><path class="d" d="M32,0H182a8,8,0,0,1,8,8V175.273a32,32,0,0,1-32,32H8a8,8,0,0,1-8-8V32A32,32,0,0,1,32,0Z"/><path class="e" d="M32,0H182a8,8,0,0,1,8,8V175.273a32,32,0,0,1-32,32H8a8,8,0,0,1-8-8V32A32,32,0,0,1,32,0Z"/></g></svg>