<svg xmlns="http://www.w3.org/2000/svg" xmlns:xlink="http://www.w3.org/1999/xlink" width="118.833" height="112" viewBox="0 0 118.833 112"><defs><style>.a{fill:#2dff77;}.b,.c{mix-blend-mode:darken;}.b,.c,.d{isolation:isolate;}.b{fill:url(#c);}.c{fill:url(#d);}.d{mix-blend-mode:lighten;fill:url(#e);}.e{fill:#f7f7f7;}.f{filter:url(#a);}</style><filter id="a" x="0" y="0" width="118.833" height="112" filterUnits="userSpaceOnUse"><feOffset dx="2" dy="2" input="SourceAlpha"/><feGaussianBlur stdDeviation="5" result="b"/><feFlood flood-opacity="0.302"/><feComposite operator="in" in2="b"/><feComposite in="SourceGraphic"/></filter><linearGradient id="c" x2="1" y2="1" gradientUnits="objectBoundingBox"><stop offset="0" stop-color="#2e2e2e" stop-opacity="0.8"/><stop offset="1" stop-color="#52cc7c" stop-opacity="0.502"/></linearGradient><linearGradient id="d" x1="1" x2="0" xlink:href="#c"/><linearGradient id="e" x1="0.5" x2="0.5" y2="1.372" gradientUnits="objectBoundingBox"><stop offset="0" stop-color="#f7f7f7" stop-opacity="0.2"/><stop offset="1" stop-color="#f7f7f7" stop-opacity="0"/></linearGradient></defs><g transform="translate(13 13)"><g class="f" transform="matrix(1, 0, 0, 1, -13, -13)"><rect class="a" width="88.833" height="82" rx="16" transform="translate(13 13)"/></g><rect class="b" width="88.833" height="82" rx="16"/><rect class="c" width="88.833" height="82" rx="16"/><rect class="d" width="88.83" height="82" rx="16"/><path class="e" d="M20.244,2a.54.54,0,0,0-.469.271c-3.463,5.062-4.816,9.049-4.136,12.188.58,2.677,2.578,4.618,4.693,6.673,2.481,2.41,5.293,5.142,5.293,9.244a8.759,8.759,0,0,1-8.749,8.75H16.76a8.833,8.833,0,0,1-8.635-8.849V21.256a.544.544,0,0,0-.549-.535.492.492,0,0,0-.372.174,19.269,19.269,0,0,0-3.561,5.35A18.239,18.239,0,1,0,38.5,33.75a19.516,19.516,0,0,0-3.1-10.909,39.6,39.6,0,0,0-6.77-7.432C24.6,11.677,20.781,8.152,20.781,2.516A.5.5,0,0,0,20.244,2h0m0-2a2.488,2.488,0,0,1,2.537,2.517C22.781,13.394,40.5,15.79,40.5,33.75a20.25,20.25,0,0,1-40.5,0A21.089,21.089,0,0,1,5.755,19.516a2.532,2.532,0,0,1,4.37,1.74v9.019a6.75,6.75,0,1,0,13.5.1c0-9.281-18.562-10.141-5.5-29.234A2.533,2.533,0,0,1,20.244,0Z" transform="translate(24.165 14)"/></g></svg>